<svg width="17" height="17" viewBox="0 0 17 17" fill="none" xmlns="http://www.w3.org/2000/svg">
<path d="M2.16966 3.83334H2.14619C1.89067 3.84875 1.63472 3.81132 1.39432 3.72338C1.15392 3.63543 0.934232 3.49887 0.748975 3.32222C0.563717 3.14557 0.416869 2.93262 0.317601 2.69667C0.218333 2.46072 0.168776 2.20684 0.172025 1.95088C0.175274 1.69491 0.23126 1.44237 0.336486 1.20902C0.441712 0.975664 0.593918 0.76651 0.7836 0.594617C0.973282 0.422725 1.19637 0.291784 1.43892 0.209972C1.68148 0.128161 1.9383 0.0972355 2.19334 0.119127C2.44965 0.100565 2.70702 0.135231 2.94929 0.220947C3.19155 0.306664 3.41345 0.441575 3.60106 0.617199C3.78866 0.792824 3.93789 1.00536 4.03938 1.24145C4.14087 1.47754 4.19241 1.73207 4.19078 1.98905C4.18914 2.24602 4.13435 2.49988 4.02986 2.73465C3.92537 2.96943 3.77343 3.18005 3.58361 3.35326C3.39378 3.52648 3.17017 3.65855 2.92684 3.74117C2.6835 3.82379 2.42571 3.85517 2.16966 3.83334Z" fill="#858585"/>
<path d="M3.84847 6.3335H0.515137V16.3335H3.84847V6.3335Z" fill="#858585"/>
<path d="M12.5979 6.3335C12.0362 6.33503 11.4821 6.4635 10.977 6.70932C10.472 6.95513 10.029 7.31192 9.68123 7.75302V6.3335H6.3479V16.3335H9.68123V11.7502C9.68123 11.3081 9.85683 10.8842 10.1694 10.5717C10.482 10.2591 10.9059 10.0835 11.3479 10.0835C11.7899 10.0835 12.2139 10.2591 12.5264 10.5717C12.839 10.8842 13.0146 11.3081 13.0146 11.7502V16.3335H16.3479V10.0835C16.3479 9.59104 16.2509 9.1034 16.0624 8.64843C15.874 8.19346 15.5978 7.78007 15.2496 7.43185C14.9013 7.08363 14.4879 6.8074 14.033 6.61895C13.578 6.43049 13.0904 6.3335 12.5979 6.3335Z" fill="#858585"/>
</svg>
