<svg width="155" height="34" viewBox="0 0 155 34" fill="none" xmlns="http://www.w3.org/2000/svg">
<path d="M0 0.642029V26.77H7.678C16.054 26.77 21.455 21.884 21.455 13.721C21.485 5.52802 16.083 0.642029 7.678 0.642029H0ZM7.678 6.19502C11.957 6.19502 14.809 8.74402 14.809 13.751C14.809 18.728 11.956 21.307 7.678 21.307H6.378V6.19502H7.678ZM41.149 18.642C41.179 18.187 41.179 17.762 41.179 17.398C41.179 10.722 37.811 6.74702 31.559 6.74702C25.793 6.74702 21.909 11.329 21.909 17.095C21.909 22.861 25.884 27.322 32.348 27.322C33.9957 27.383 35.631 27.0151 37.0938 26.2544C38.5566 25.4936 39.7968 24.366 40.693 22.982L36.566 19.765C36.0973 20.4138 35.4812 20.942 34.7683 21.3061C34.0555 21.6702 33.2664 21.8597 32.466 21.859C30.16 21.859 28.43 20.372 28.278 18.642H41.149ZM31.681 11.753C32.0818 11.7336 32.4825 11.7936 32.86 11.9297C33.2376 12.0659 33.5844 12.2753 33.8806 12.5461C34.1767 12.8169 34.4164 13.1436 34.5857 13.5075C34.755 13.8713 34.8506 14.2651 34.867 14.666H28.495C28.537 13.859 28.8946 13.1008 29.4906 12.5551C30.0867 12.0094 30.8734 11.7198 31.681 11.749V11.753ZM52.316 21.798C51.6749 21.8318 51.0338 21.7298 50.4347 21.4989C49.8357 21.268 49.2921 20.9132 48.8395 20.4578C48.387 20.0024 48.0356 19.4566 47.8084 18.8561C47.5812 18.2556 47.4832 17.6139 47.521 16.973C47.4806 16.354 47.5718 15.7335 47.7885 15.1523C48.0052 14.571 48.3426 14.0423 48.7784 13.6009C49.2141 13.1594 49.7385 12.8152 50.3169 12.591C50.8952 12.3668 51.5145 12.2677 52.134 12.3C53.5696 12.3112 54.9554 12.8269 56.049 13.757L57.749 8.47704C56.0452 7.2792 54.0054 6.65249 51.923 6.68703C45.823 6.71703 41.272 10.996 41.272 17.035C41.272 23.044 45.672 27.292 51.893 27.292C53.9496 27.3074 55.9616 26.6933 57.659 25.532L55.99 20.404C54.9636 21.2787 53.6653 21.7697 52.317 21.793L52.316 21.798ZM57.748 20.706C57.748 24.985 61.177 27.291 65.031 27.291C65.8386 27.3498 66.6497 27.2399 67.4125 26.9682C68.1754 26.6965 68.8733 26.2691 69.462 25.713L69.826 26.805H75.38V14.662C75.38 10.171 73.65 6.71103 66.913 6.71103C64.0698 6.70458 61.2899 7.55028 58.932 9.13902L61.238 13.327C62.7605 12.5432 64.442 12.1177 66.154 12.083C68.187 12.083 69.154 13.024 69.154 14.207V14.935C67.9545 14.4296 66.6623 14.1816 65.361 14.207C60.723 14.207 57.749 16.786 57.749 20.701L57.748 20.706ZM63.969 20.494C63.969 19.219 65.061 18.4 66.579 18.4C68.066 18.4 69.219 19.159 69.219 20.494C69.219 21.794 68.096 22.494 66.609 22.494C65.183 22.491 63.97 21.793 63.97 20.488L63.969 20.494ZM90.8 25.799C90.8 28.199 88.494 28.712 86.157 28.712C84.2868 28.6721 82.4421 28.27 80.725 27.528L78.9 32.293C81.1505 33.3874 83.6195 33.958 86.122 33.962C91.948 33.962 96.986 31.686 96.986 24.462V7.16203H91.16V8.71002C90.4514 8.04144 89.617 7.52034 88.7052 7.177C87.7935 6.83366 86.8226 6.67492 85.849 6.71002C80.235 6.71002 76.26 10.958 76.26 16.967C76.26 23.067 79.841 27.285 85.516 27.285C86.473 27.3157 87.4267 27.1573 88.3224 26.8189C89.2181 26.4806 90.0383 25.9688 90.736 25.313V25.799H90.8ZM91.012 16.938C91.012 20.038 89.222 21.793 86.794 21.793C84.245 21.793 82.576 19.82 82.576 16.938C82.576 14.025 84.276 12.204 86.764 12.204C89.43 12.174 91.008 14.298 91.008 16.942L91.012 16.938ZM148.579 26.77H154.8V15.906C154.8 11.9 154.223 6.71103 148.063 6.71103C147.099 6.69085 146.145 6.91046 145.287 7.35014C144.429 7.78983 143.694 8.4358 143.147 9.23003V7.19702H137.047V26.797H143.268V15.087C143.241 14.7212 143.291 14.3537 143.416 14.0088C143.54 13.6638 143.737 13.3491 143.992 13.0854C144.247 12.8217 144.555 12.6149 144.895 12.4787C145.236 12.3425 145.601 12.2799 145.968 12.295C146.328 12.2818 146.686 12.347 147.017 12.4861C147.349 12.6252 147.647 12.8349 147.889 13.1006C148.132 13.3663 148.314 13.6816 148.422 14.0246C148.53 14.3677 148.563 14.7302 148.517 15.087V26.77H148.579Z" fill="white"/>
</svg>
