<svg width="155" height="37" viewBox="0 0 155 37" fill="none" xmlns="http://www.w3.org/2000/svg">
<g clip-path="url(#clip0)">
<path d="M0 3.64203V29.77H7.678C16.054 29.77 21.455 24.884 21.455 16.721C21.485 8.52802 16.083 3.64203 7.678 3.64203H0ZM7.678 9.19502C11.957 9.19502 14.809 11.744 14.809 16.751C14.809 21.728 11.956 24.307 7.678 24.307H6.378V9.19502H7.678ZM41.149 21.642C41.179 21.187 41.179 20.762 41.179 20.398C41.179 13.722 37.811 9.74702 31.559 9.74702C25.793 9.74702 21.909 14.329 21.909 20.095C21.909 25.861 25.884 30.322 32.348 30.322C33.9957 30.383 35.631 30.0151 37.0938 29.2544C38.5566 28.4936 39.7968 27.366 40.693 25.982L36.566 22.765C36.0973 23.4138 35.4812 23.942 34.7683 24.3061C34.0555 24.6702 33.2664 24.8597 32.466 24.859C30.16 24.859 28.43 23.372 28.278 21.642H41.149ZM31.681 14.753C32.0818 14.7336 32.4825 14.7936 32.86 14.9297C33.2376 15.0659 33.5844 15.2753 33.8806 15.5461C34.1767 15.8169 34.4164 16.1436 34.5857 16.5075C34.755 16.8713 34.8506 17.2651 34.867 17.666H28.495C28.537 16.859 28.8946 16.1008 29.4906 15.5551C30.0867 15.0094 30.8734 14.7198 31.681 14.749V14.753ZM52.316 24.798C51.6749 24.8318 51.0338 24.7298 50.4347 24.4989C49.8357 24.268 49.2921 23.9132 48.8395 23.4578C48.387 23.0024 48.0356 22.4566 47.8084 21.8561C47.5812 21.2556 47.4832 20.6139 47.521 19.973C47.4806 19.354 47.5718 18.7335 47.7885 18.1523C48.0052 17.571 48.3426 17.0423 48.7784 16.6009C49.2141 16.1594 49.7385 15.8152 50.3169 15.591C50.8952 15.3668 51.5145 15.2677 52.134 15.3C53.5696 15.3112 54.9554 15.8269 56.049 16.757L57.749 11.477C56.0452 10.2792 54.0054 9.65249 51.923 9.68703C45.823 9.71703 41.272 13.996 41.272 20.035C41.272 26.044 45.672 30.292 51.893 30.292C53.9496 30.3074 55.9616 29.6933 57.659 28.532L55.99 23.404C54.9636 24.2787 53.6653 24.7697 52.317 24.793L52.316 24.798ZM57.748 23.706C57.748 27.985 61.177 30.291 65.031 30.291C65.8386 30.3498 66.6497 30.2399 67.4125 29.9682C68.1754 29.6965 68.8733 29.2691 69.462 28.713L69.826 29.805H75.38V17.662C75.38 13.171 73.65 9.71103 66.913 9.71103C64.0698 9.70458 61.2899 10.5503 58.932 12.139L61.238 16.327C62.7605 15.5432 64.442 15.1177 66.154 15.083C68.187 15.083 69.154 16.024 69.154 17.207V17.935C67.9545 17.4296 66.6623 17.1816 65.361 17.207C60.723 17.207 57.749 19.786 57.749 23.701L57.748 23.706ZM63.969 23.494C63.969 22.219 65.061 21.4 66.579 21.4C68.066 21.4 69.219 22.159 69.219 23.494C69.219 24.794 68.096 25.494 66.609 25.494C65.183 25.491 63.97 24.793 63.97 23.488L63.969 23.494ZM90.8 28.799C90.8 31.199 88.494 31.712 86.157 31.712C84.2868 31.6721 82.4421 31.27 80.725 30.528L78.9 35.293C81.1505 36.3874 83.6195 36.958 86.122 36.962C91.948 36.962 96.986 34.686 96.986 27.462V10.162H91.16V11.71C90.4514 11.0414 89.617 10.5203 88.7052 10.177C87.7935 9.83366 86.8226 9.67492 85.849 9.71002C80.235 9.71002 76.26 13.958 76.26 19.967C76.26 26.067 79.841 30.285 85.516 30.285C86.473 30.3157 87.4267 30.1573 88.3224 29.8189C89.2181 29.4806 90.0383 28.9688 90.736 28.313V28.799H90.8ZM91.012 19.938C91.012 23.038 89.222 24.793 86.794 24.793C84.245 24.793 82.576 22.82 82.576 19.938C82.576 17.025 84.276 15.204 86.764 15.204C89.43 15.174 91.008 17.298 91.008 19.942L91.012 19.938ZM148.579 29.77H154.8V18.906C154.8 14.9 154.223 9.71103 148.063 9.71103C147.099 9.69085 146.145 9.91046 145.287 10.3501C144.429 10.7898 143.694 11.4358 143.147 12.23V10.197H137.047V29.797H143.268V18.087C143.241 17.7212 143.291 17.3537 143.416 17.0088C143.54 16.6638 143.737 16.3491 143.992 16.0854C144.247 15.8217 144.555 15.6149 144.895 15.4787C145.236 15.3425 145.601 15.2799 145.968 15.295C146.328 15.2818 146.686 15.347 147.017 15.4861C147.349 15.6252 147.647 15.8349 147.889 16.1006C148.132 16.3663 148.314 16.6816 148.422 17.0246C148.53 17.3677 148.563 17.7302 148.517 18.087V29.77H148.579Z" fill="white"/>
<path fill-rule="evenodd" clip-rule="evenodd" d="M112.01 8.70901C112.867 8.70975 113.721 8.80126 114.559 8.98201L113.527 11.774C113.044 11.7125 112.557 11.6821 112.07 11.683C110.851 11.6821 109.64 11.8873 108.489 12.29L108.034 9.31601C109.32 8.91066 110.661 8.70593 112.01 8.70901ZM110.462 27.309C110.04 26.5627 109.685 25.7807 109.4 24.972L112.344 24.456C112.513 24.9012 112.727 25.3283 112.981 25.731C113.571 26.7959 114.353 27.7425 115.287 28.523L112.981 30.404C111.973 29.5212 111.121 28.4757 110.459 27.311L110.462 27.309ZM134.435 22.363C134.346 22.9859 134.224 23.6038 134.071 24.214L132.796 23.668C132.96 23.1529 133.082 22.6251 133.16 22.09L134.435 22.363ZM132.675 27.492C132.292 28.1593 131.834 28.7804 131.309 29.343L130.095 28.043C130.557 27.6003 130.974 27.1121 131.339 26.586L132.675 27.492ZM129.064 31.346C128.742 31.586 128.409 31.809 128.064 32.014C127.464 32.3624 126.835 32.6569 126.183 32.894L125.606 30.709C126.403 30.4715 127.168 30.1356 127.882 29.709C128.003 29.648 128.094 29.588 128.216 29.527L129.064 31.346ZM123.844 33.531C122.512 33.7787 121.147 33.7993 119.808 33.592L120.658 31.043C121.76 31.2455 122.887 31.2661 123.996 31.104L123.844 33.531ZM118.351 33.319L119.443 30.77C118.184 30.411 117.001 29.8247 115.953 29.04L113.953 31.195C115.266 32.1834 116.759 32.9053 118.349 33.32L118.351 33.319ZM104.27 31.919C103.76 31.546 103.283 31.1298 102.844 30.675L103.936 29.856C104.3 30.2609 104.696 30.6364 105.12 30.979L104.27 31.919ZM100.719 27.883C100.356 27.1977 100.042 26.488 99.7779 25.759L101.538 25.364C101.709 25.9845 101.922 26.5929 102.175 27.185L100.719 27.883ZM99.1709 22.815C99.1203 22.4225 99.0999 22.0267 99.1099 21.631C99.1089 20.929 99.1698 20.2283 99.2919 19.537L101.477 20.114C101.269 20.9268 101.168 21.7632 101.177 22.602V22.966L99.1709 22.815ZM99.8989 17.201C100.351 15.9301 101.007 14.7412 101.841 13.681L103.662 15.654C102.952 16.5392 102.369 17.5198 101.932 18.567L99.8989 17.201ZM102.843 12.528L104.482 14.774C105.421 13.8528 106.522 13.1122 107.729 12.589L106.879 9.79701C105.361 10.4237 103.987 11.3549 102.843 12.533V12.528ZM127.302 19.356C126.884 20.0967 126.385 20.7889 125.815 21.42L123.903 19.144C124.194 18.7685 124.457 18.3729 124.692 17.96C125.31 16.9089 125.741 15.7585 125.967 14.56L128.759 15.622C128.472 16.9368 127.98 18.1984 127.302 19.361V19.356ZM111.102 1.05602C111.675 0.790598 112.275 0.587118 112.892 0.44902L113.044 1.81502C112.519 1.93449 112.002 2.08645 111.496 2.27002L111.102 1.05602ZM116.352 -0.00598145C117.127 -0.000191267 117.899 0.0811907 118.658 0.237015L118.142 1.96701C117.527 1.79451 116.897 1.68265 116.261 1.63301L116.352 -0.00598145ZM121.51 1.18301L122.602 1.72902C123.202 2.0885 123.78 2.48387 124.332 2.91301L122.724 4.52101C122.121 3.94468 121.449 3.44521 120.724 3.03401C120.633 2.97301 120.512 2.91302 120.424 2.85202L121.51 1.18301ZM126.032 4.61201C126.895 5.65136 127.591 6.81823 128.096 8.07101L125.486 8.64801C125.08 7.58865 124.517 6.59625 123.817 5.70401L126.032 4.61201ZM128.61 9.50002C129.018 11.084 129.141 12.7279 128.974 14.355L126.121 13.687C126.273 12.3867 126.181 11.0693 125.848 9.80301L128.61 9.50002Z" fill="#B8D344"/>
<path fill-rule="evenodd" clip-rule="evenodd" d="M105.877 17.54C106.31 16.809 106.808 16.1183 107.364 15.476L109.277 17.753C108.98 18.1408 108.706 18.5462 108.458 18.967C107.849 20.0196 107.428 21.1701 107.214 22.367L104.422 21.275C104.709 19.9617 105.2 18.7015 105.877 17.54ZM122.749 9.62002C123.164 10.3697 123.519 11.1512 123.811 11.957L120.867 12.473C120.679 12.0281 120.467 11.5941 120.23 11.173C119.612 10.119 118.822 9.17541 117.893 8.38102L120.23 6.53002C121.22 7.4283 122.069 8.46988 122.75 9.62002H122.749ZM98.7771 14.506C98.8398 13.8888 98.9617 13.2789 99.1411 12.685L100.416 13.231C100.231 13.7402 100.109 14.2701 100.052 14.809L98.7771 14.506ZM100.507 9.40601C100.897 8.75103 101.344 8.13164 101.842 7.55502L103.056 8.85502C102.618 9.31146 102.212 9.79835 101.842 10.312L100.507 9.40601ZM104.088 5.55201C104.421 5.32205 104.765 5.10944 105.12 4.91502C105.709 4.55739 106.328 4.25285 106.971 4.00501L107.578 6.19001C106.771 6.42719 105.997 6.76307 105.272 7.19001C105.181 7.25101 105.06 7.31102 104.972 7.37202L104.088 5.55201ZM109.338 3.36701C110.67 3.11928 112.035 3.09867 113.374 3.30602L112.524 5.85502C111.421 5.66303 110.293 5.6529 109.186 5.82502L109.338 3.36701ZM114.831 3.57902L113.739 6.12802C114.996 6.49333 116.177 7.0791 117.229 7.85801L119.229 5.70301C117.905 4.73279 116.414 4.01358 114.83 3.58102L114.831 3.57902ZM121.173 28.19C120.318 28.1872 119.465 28.1059 118.624 27.947L119.656 25.125C120.128 25.1954 120.605 25.2358 121.082 25.246C122.31 25.2345 123.529 25.0296 124.693 24.639L125.118 27.583C123.844 27.9886 122.514 28.194 121.177 28.192L121.173 28.19ZM128.911 4.97502C129.405 5.34673 129.873 5.75238 130.311 6.18902L129.219 7.03901C128.858 6.64185 128.473 6.26685 128.066 5.91602L128.911 4.97502ZM132.431 9.04102C132.803 9.71543 133.128 10.4151 133.402 11.135L131.642 11.53C131.46 10.909 131.237 10.3006 130.974 9.70902L132.431 9.04102ZM134.009 14.109C134.039 14.473 134.07 14.898 134.07 15.293C134.071 15.9851 134.01 16.6758 133.888 17.357L131.703 16.78C131.898 15.9649 131.999 15.1301 132.003 14.292C132.008 14.1699 131.998 14.0476 131.973 13.928L134.009 14.109ZM133.277 19.725C132.825 20.9959 132.169 22.1848 131.335 23.245L129.514 21.245C130.239 20.3811 130.823 19.4081 131.244 18.362L133.277 19.725ZM130.303 24.368L128.664 22.153C127.729 23.0717 126.627 23.8031 125.417 24.308L126.297 27.13C127.803 26.4827 129.166 25.544 130.307 24.368H130.303ZM122.11 35.868C121.526 36.1066 120.929 36.3093 120.32 36.475L120.138 35.075C120.671 34.9617 121.198 34.8199 121.716 34.65L122.11 35.868ZM116.83 36.9C116.055 36.8958 115.283 36.8144 114.524 36.657L115.04 34.927C115.644 35.1065 116.264 35.2284 116.891 35.291L116.83 36.9ZM111.641 35.717C111.277 35.535 110.941 35.353 110.579 35.171C109.979 34.8115 109.401 34.4162 108.849 33.987L110.427 32.379C111.034 32.9508 111.705 33.4498 112.427 33.866C112.548 33.927 112.639 33.987 112.761 34.048L111.641 35.717ZM107.15 32.288C106.272 31.2542 105.565 30.0864 105.056 28.829L107.696 28.252C108.078 29.3226 108.643 30.3187 109.365 31.196L107.15 32.288ZM104.601 27.402C104.177 25.8207 104.053 24.1739 104.237 22.547L107.09 23.215C106.948 24.5274 107.05 25.8547 107.39 27.13L104.601 27.402Z" fill="#34A853"/>
<path fill-rule="evenodd" clip-rule="evenodd" d="M105.877 17.54C106.31 16.809 106.808 16.1183 107.364 15.476L109.277 17.753C108.98 18.1408 108.706 18.5462 108.458 18.967C107.849 20.0196 107.428 21.1701 107.214 22.367L104.422 21.275C104.709 19.9617 105.2 18.7015 105.877 17.54ZM122.749 9.62002C123.164 10.3697 123.519 11.1512 123.811 11.957L120.867 12.473C120.679 12.0281 120.466 11.5941 120.23 11.173C119.611 10.119 118.822 9.17541 117.893 8.38102L120.23 6.53002C121.22 7.4283 122.069 8.46988 122.75 9.62002H122.749ZM98.7769 14.506C98.8395 13.8888 98.9614 13.2789 99.1409 12.685L100.416 13.231C100.231 13.7402 100.108 14.2701 100.052 14.809L98.7769 14.506ZM100.507 9.40601C100.897 8.75103 101.343 8.13164 101.842 7.55502L103.056 8.85502C102.617 9.31146 102.212 9.79835 101.842 10.312L100.507 9.40601ZM104.088 5.55201C104.421 5.32205 104.765 5.10944 105.12 4.91502C105.709 4.55739 106.328 4.25285 106.971 4.00501L107.578 6.19001C106.771 6.42719 105.996 6.76307 105.272 7.19001C105.181 7.25101 105.06 7.31102 104.972 7.37202L104.088 5.55201ZM109.338 3.36701C110.67 3.11928 112.035 3.09867 113.374 3.30602L112.524 5.85502C111.42 5.66303 110.293 5.6529 109.186 5.82502L109.338 3.36701ZM114.831 3.57902L113.739 6.12802C114.996 6.49333 116.177 7.0791 117.229 7.85801L119.229 5.70301C117.905 4.73279 116.414 4.01358 114.83 3.58102L114.831 3.57902ZM121.173 28.19C120.318 28.1872 119.464 28.1059 118.624 27.947L119.656 25.125C120.128 25.1954 120.604 25.2358 121.082 25.246C122.31 25.2345 123.528 25.0296 124.693 24.639L125.118 27.583C123.844 27.9886 122.514 28.194 121.177 28.192L121.173 28.19ZM128.911 4.97502C129.405 5.34673 129.873 5.75238 130.311 6.18902L129.219 7.03901C128.857 6.64185 128.472 6.26685 128.066 5.91602L128.911 4.97502ZM132.431 9.04102C132.803 9.71543 133.128 10.4151 133.402 11.135L131.642 11.53C131.46 10.909 131.236 10.3006 130.974 9.70902L132.431 9.04102ZM134.009 14.109C134.039 14.473 134.07 14.898 134.07 15.293C134.071 15.9851 134.01 16.6758 133.888 17.357L131.703 16.78C131.898 15.9649 131.998 15.1301 132.003 14.292C132.008 14.1699 131.998 14.0476 131.973 13.928L134.009 14.109ZM133.277 19.725C132.825 20.9959 132.169 22.1848 131.335 23.245L129.514 21.245C130.239 20.3811 130.823 19.4081 131.244 18.362L133.277 19.725ZM130.303 24.368L128.664 22.153C127.729 23.0717 126.627 23.8031 125.417 24.308L126.297 27.13C127.803 26.4827 129.165 25.544 130.307 24.368H130.303ZM122.11 35.868C121.526 36.1066 120.928 36.3093 120.32 36.475L120.138 35.075C120.671 34.9617 121.198 34.8199 121.716 34.65L122.11 35.868ZM116.83 36.9C116.055 36.8958 115.283 36.8144 114.524 36.657L115.04 34.927C115.644 35.1065 116.264 35.2284 116.891 35.291L116.83 36.9ZM111.641 35.717C111.277 35.535 110.941 35.353 110.579 35.171C109.979 34.8115 109.401 34.4162 108.849 33.987L110.427 32.379C111.033 32.9508 111.705 33.4498 112.427 33.866C112.548 33.927 112.639 33.987 112.761 34.048L111.641 35.717ZM107.15 32.288C106.272 31.2542 105.565 30.0864 105.056 28.829L107.696 28.252C108.078 29.3226 108.642 30.3187 109.365 31.196L107.15 32.288ZM104.601 27.402C104.177 25.8207 104.053 24.1739 104.237 22.547L107.09 23.215C106.948 24.5274 107.049 25.8547 107.39 27.13L104.601 27.402Z" fill="#34A853"/>
</g>
<defs>
<clipPath id="clip0">
<rect width="154.796" height="36.962" fill="white"/>
</clipPath>
</defs>
</svg>
