<svg width="113" height="25" viewBox="0 0 113 25" fill="none" xmlns="http://www.w3.org/2000/svg">
<path d="M0 0.6604V19.7464H5.60489C11.7193 19.7464 15.662 16.1773 15.662 10.2143C15.6839 4.22952 11.7405 0.6604 5.60489 0.6604H0ZM5.60489 4.71675C8.72853 4.71675 10.8105 6.57874 10.8105 10.2363C10.8105 13.8719 8.7278 15.7558 5.60489 15.7558H4.6559V4.71675H5.60489ZM30.0385 13.809C30.0604 13.4767 30.0604 13.1662 30.0604 12.9003C30.0604 8.02364 27.6018 5.11998 23.0379 5.11998C18.8287 5.11998 15.9934 8.46704 15.9934 12.679C15.9934 16.8909 18.8951 20.1496 23.6138 20.1496C24.8166 20.1942 26.0104 19.9254 27.0782 19.3697C28.1461 18.814 29.0514 17.9903 29.7056 16.9793L26.6929 14.6294C26.3508 15.1033 25.901 15.4891 25.3806 15.7551C24.8603 16.021 24.2842 16.1595 23.7 16.159C22.0166 16.159 20.7537 15.0728 20.6427 13.809H30.0385ZM23.1269 8.77676C23.4195 8.76254 23.712 8.80641 23.9876 8.90584C24.2632 9.00527 24.5164 9.1583 24.7326 9.35611C24.9488 9.55391 25.1237 9.79258 25.2473 10.0584C25.3709 10.3241 25.4407 10.6118 25.4527 10.9047H20.8012C20.8318 10.3151 21.0929 9.76129 21.528 9.36265C21.9631 8.96401 22.5374 8.75253 23.1269 8.77384V8.77676ZM38.1903 16.1144C37.7223 16.1391 37.2543 16.0646 36.817 15.8959C36.3797 15.7272 35.9829 15.4681 35.6525 15.1354C35.3221 14.8028 35.0656 14.4041 34.8998 13.9654C34.7339 13.5268 34.6624 13.058 34.69 12.5899C34.6605 12.1377 34.7271 11.6844 34.8853 11.2598C35.0435 10.8353 35.2897 10.449 35.6079 10.1266C35.926 9.80409 36.3087 9.55269 36.731 9.38891C37.1532 9.22513 37.6052 9.15269 38.0575 9.17634C39.1054 9.18447 40.1171 9.56123 40.9154 10.2406L42.1564 6.38372C40.9126 5.50872 39.4236 5.05092 37.9034 5.07615C33.4505 5.09806 30.1283 8.22379 30.1283 12.6352C30.1283 17.0246 33.3402 20.1277 37.8815 20.1277C39.3828 20.1389 40.8516 19.6903 42.0907 18.842L40.8723 15.0961C40.1231 15.7351 39.1753 16.0937 38.191 16.1108L38.1903 16.1144ZM42.1556 15.3167C42.1556 18.4425 44.6588 20.127 47.4722 20.127C48.0617 20.1699 48.6538 20.0896 49.2107 19.8911C49.7675 19.6927 50.277 19.3804 50.7068 18.9743L50.9725 19.7719H55.0269V10.9017C55.0269 7.62115 53.764 5.09368 48.846 5.09368C46.7705 5.08897 44.7412 5.70674 43.02 6.86728L44.7033 9.92654C45.8147 9.35399 47.0422 9.04317 48.292 9.01782C49.776 9.01782 50.4819 9.7052 50.4819 10.5694V11.1011C49.6063 10.732 48.663 10.5508 47.7131 10.5694C44.3274 10.5694 42.1564 12.4533 42.1564 15.3131L42.1556 15.3167ZM46.6969 15.1619C46.6969 14.2305 47.4941 13.6323 48.6022 13.6323C49.6877 13.6323 50.5294 14.1867 50.5294 15.1619C50.5294 16.1115 49.7096 16.6229 48.6241 16.6229C47.5831 16.6207 46.6977 16.1108 46.6977 15.1575L46.6969 15.1619ZM66.2834 19.0371C66.2834 20.7902 64.6 21.165 62.894 21.165C61.5288 21.1358 60.1822 20.8421 58.9287 20.3001L57.5965 23.7808C59.2393 24.5802 61.0417 24.9971 62.8685 25C67.1214 25 70.7991 23.3374 70.7991 18.0604V5.42313H66.5462V6.55391C66.0289 6.06552 65.4198 5.68487 64.7542 5.43407C64.0886 5.18326 63.3799 5.06731 62.6692 5.09295C58.571 5.09295 55.6693 8.19603 55.6693 12.5855C55.6693 17.0414 58.2834 20.1226 62.4261 20.1226C63.1247 20.145 63.8209 20.0293 64.4747 19.7821C65.1286 19.5349 65.7273 19.1611 66.2366 18.6821V19.0371H66.2834ZM66.4381 12.5643C66.4381 14.8288 65.1314 16.1108 63.359 16.1108C61.4983 16.1108 60.2799 14.6695 60.2799 12.5643C60.2799 10.4364 61.5209 9.10621 63.3371 9.10621C65.2833 9.08429 66.4352 10.6358 66.4352 12.5672L66.4381 12.5643ZM108.462 19.7464H113.003V11.8105C113.003 8.88415 112.582 5.09368 108.085 5.09368C107.381 5.07894 106.685 5.23936 106.059 5.56054C105.432 5.88172 104.895 6.3536 104.496 6.93376V5.44869H100.043V19.7661H104.585V11.2122C104.565 10.945 104.601 10.6765 104.692 10.4245C104.783 10.1725 104.927 9.94265 105.113 9.75002C105.299 9.55739 105.524 9.40637 105.773 9.30686C106.021 9.20736 106.288 9.16163 106.556 9.17268C106.818 9.16301 107.079 9.21064 107.322 9.31226C107.564 9.41387 107.781 9.56705 107.958 9.76113C108.135 9.95521 108.268 10.1855 108.347 10.4361C108.426 10.6867 108.45 10.9515 108.416 11.2122V19.7464H108.462Z" fill="white"/>
</svg>
